<svg viewBox="0 0 1920 204.8" version="1.1" xmlns="http://www.w3.org/2000/svg" id="Clearspace">
  
  <defs>
    <style>
      .st0 {
        fill: #1a458b;
      }
    </style>
  </defs>
  <g>
    <g>
      <path d="M66.6,78.9H0c0-16.1,12.5-31.2,33.3-31.2s33.2,13.5,33.2,31.2Z" class="st0"/>
      <path d="M176.7,52.2c17,27.6,17,71.2,0,98.7,14.2-1.2,26.9-6,36.7-17.7,13.6-17.3,13.8-39.5,4.5-57.5-7.9-15.8-25.1-22.1-41.2-23.5ZM176.1,1.6c51.5,0,84.4,28.5,96.7,58.4,15.8,30.6,10.1,74.2-8.6,102.8-15.3,24.1-41,38.6-89.3,38.6s-102.5,0-129.7,0c41.9-3.2,68.7-27.7,84.6-61.8h-61.9c-4.2,7.8-15.9,13.2-29.1,13.2-21.4,0-34.2-20-34.2-36h129c5.4-19,1.6-40.2-6.3-56.9C112.7,26,74,2.7,42.6,1.6h133.5Z" class="st0"/>
    </g>
    <g>
      <polygon points="547 33.5 446.6 33.5 440.3 85.5 527.9 85.5 524.4 114.8 436.8 114.8 430.2 169.5 530.6 169.5 526.8 201.2 381.2 201.2 405.3 1.8 550.9 1.8 547 33.5" class="st0"/>
      <polygon points="587.3 1.8 629.2 1.8 605.1 201.2 563.3 201.2 587.3 1.8" class="st0"/>
      <polygon points="668.6 1.8 710.5 1.8 686.4 201.2 644.6 201.2 668.6 1.8" class="st0"/>
      <path d="M749.5,0h42.7l-3.3,27.5h-42.7l3.3-27.5ZM743.8,52.6h41.9l-17.9,148.6h-41.9l17.9-148.6Z" class="st0"/>
      <path d="M803,166.2c13.4,5.7,27.1,11.1,41.7,11.1s22.9-3.9,24.1-13.8c2.7-22.7-56-39.2-51.4-77.1,1.2-9.9,9.3-37.4,60.1-37.4s29.4,2.1,43.7,4.8l-.4,30.5c-9.7-4.2-26.3-7.8-37.6-7.8s-19.7,2.1-20.9,12.3c-2.3,19.1,56,38.6,51.2,78.3-3.4,28.1-37.1,37.7-62.3,37.7s-32.3-2.7-47.4-6.3l-.9-32.3Z" class="st0"/>
      <path d="M989.1,169.5h37.4c49.6,0,75.4-32.6,79-77.4,2.6-31.7-13-58.6-49.4-58.6h-50.5l-16.4,136ZM966.6,1.8h101c60.4,0,84.3,40.1,80.5,90.9-5.4,71.7-55.6,108.5-111.2,108.5h-94.5L966.6,1.8Z" class="st0"/>
      <path d="M1206.5,126.7c-3.5,29.3,7.9,48.7,34.5,48.7s42.7-19.4,46.2-48.7c3.5-29.3-7.9-48.4-34.5-48.4s-42.7,19.1-46.2,48.4ZM1329,127c-5.5,45.4-39.3,77.7-91.6,77.7s-78.3-32.3-72.8-77.7c5.5-45.7,39.3-78,91.6-78s78.3,32.3,72.8,78Z" class="st0"/>
      <path d="M1405,77.1l.5.6c13.7-22.1,34.2-28.7,59.1-28.7s57.2,11.7,52.8,48.1l-12.6,104h-41.9l11.4-94.5c1.9-15.5-11.4-24.2-27.6-24.2-28.1,0-44.3,15.2-49.8,61.3l-6.9,57.4h-41.9l17.9-148.6h41.9l-3,24.5Z" class="st0"/>
    </g>
  </g>
  <g>
    <path d="M1767.5,42.6c.4-.6.8-1.1,1.2-1.7.7-1,1.5-2,2.3-2.9.6-.8,1.3-1.6,1.9-2.5,6-7.5,12.5-14.9,19.6-22,.6-.6,1.3-1.3,1.9-1.9.9-.9,1.9-1.8,2.8-2.7.8-.8,1.6-1.5,2.4-2.3,1.7-1.6,3.4-3.1,5.1-4.7,0,0,0,0,0,0h-188.5c15.7,13.1,27.9,28.3,36.7,44.2h56.4c-12.9,25.2-23.7,44.3-32.2,64.5-11,25.9-17.6,53.2-19.8,81.2l-.7,9.4h57c.2-13.7,1.4-27.4,3.8-41.2,0-.5.2-1.1.3-1.6.3-1.7.6-3.4.9-5.1.2-1.1.5-2.2.7-3.3.2-1.1.4-2.1.7-3.2.4-1.7.8-3.4,1.2-5.1,0-.3.2-.7.2-1,7.9-32.1,22.3-65.7,45.1-96.8.3-.5.7-.9,1-1.4Z" class="st0"/>
    <path d="M1883.4,46c8.7-15.9,21-31,36.6-44.1h-84.5c-38.2,28.3-64.1,63.6-80.2,99.5l-6.5,15.7h47.8c4.6-8,13.3-13.4,23.2-13.4,14.8,0,26.8,12,26.8,26.8s-12,26.8-26.8,26.8-21.4-7.3-25.2-17.6h-52.9c.5,9.3,2.7,17.7,6.5,25.1,4.2,8.1,9.9,15,16.9,20.4,6.9,5.4,14.9,9.4,23.8,12,8.6,2.5,17.7,3.8,26.9,3.8h5.1c.5,0,1,0,1.5,0,9.5,0,18.6-1.7,27.2-5,8.9-3.5,16.9-8.6,23.7-15.1,6.8-6.5,12.2-14.3,16.2-23.1,4-8.9,6.1-18.7,6.1-29s-1.4-18-4.1-26.2c-2.8-8.4-6.9-15.8-12.3-22-5.4-6.3-12.1-11.4-19.9-15.1-6.2-2.9-13.8-5.4-22.9-6.4h0c-6.2-.9-12.4-1.2-18.5-.8l1.8-12.4h63.5Z" class="st0"/>
  </g>
</svg>